<?xml version="1.0" encoding="UTF-8"?>
<svg id="a" data-name="Layer 1" xmlns="http://www.w3.org/2000/svg" width="9.99" height="9.12" viewBox="0 0 9.99 9.12">
  <path d="M.65,0C.29,0,0,.29,0,.65v7.82c0,.36.29.65.65.65h8.69c.36,0,.65-.29.65-.65V1.52c0-.36-.29-.65-.65-.65H3.47l-.06-.06c-.05-.06-.12-.16-.19-.27s-.14-.22-.23-.33-.21-.21-.39-.21c0,0-1.95,0-1.95,0ZM.65.43h1.95s0,0,.07.06c.05.06.12.16.19.27s.14.22.23.33.21.21.39.21h5.86c.12,0,.22.09.22.22v.48c-.07-.02-.14-.04-.22-.04H.65c-.08,0-.15.02-.22.04V.65c0-.12.09-.22.22-.22ZM.65,2.39h8.69c.12,0,.22.09.22.22v5.86c0,.12-.09.22-.22.22H.65c-.12,0-.22-.09-.22-.22V2.61c0-.12.09-.22.22-.22Z"/>
</svg>