<?xml version="1.0" encoding="UTF-8"?>
<svg id="a" xmlns="http://www.w3.org/2000/svg" width="10" height="10" viewBox="0 0 10 10">
  <path d="M9.49,3.89h-.94c-.15,0-.27-.08-.33-.22s-.03-.29.08-.39l.66-.66c.1-.1.15-.23.15-.36s-.05-.27-.15-.36l-.84-.84c-.19-.19-.53-.19-.73,0l-.66.66c-.11.11-.25.14-.39.08-.14-.06-.22-.18-.22-.33v-.94c0-.28-.23-.51-.51-.51h-1.19c-.28,0-.51.23-.51.51v.94c0,.15-.08.27-.22.33-.14.06-.29.03-.39-.08l-.66-.66c-.19-.19-.53-.19-.73,0l-.84.84c-.1.1-.15.23-.15.36s.05.27.15.36l.66.66c.11.11.14.25.08.39s-.18.22-.33.22h-.94c-.28,0-.51.23-.51.51v1.19c0,.28.23.51.51.51h.94c.15,0,.27.08.33.22s.03.29-.08.39l-.66.66c-.1.1-.15.23-.15.36s.05.27.15.36l.84.84c.19.19.53.2.73,0l.66-.66c.11-.11.25-.14.39-.08.14.06.22.18.22.33v.94c0,.28.23.51.51.51h1.19c.28,0,.51-.23.51-.51v-.94c0-.15.08-.27.22-.33.14-.06.29-.03.39.08l.66.66c.19.19.53.19.73,0l.84-.84c.1-.1.15-.23.15-.36s-.05-.27-.15-.36l-.66-.66c-.11-.11-.14-.25-.08-.39s.18-.22.33-.22h.94c.28,0,.51-.23.51-.51v-1.19c0-.28-.23-.51-.51-.51ZM9.63,5.6c0,.08-.06.14-.14.14h-.94c-.3,0-.56.17-.67.45-.12.28-.05.58.16.8l.66.66c.06.06.06.15,0,.2l-.84.84c-.06.06-.15.06-.2,0l-.66-.66c-.21-.21-.52-.27-.8-.16-.28.11-.45.37-.45.67v.94c0,.08-.06.14-.14.14h-1.19c-.08,0-.14-.06-.14-.14v-.94c0-.3-.17-.56-.45-.67-.09-.04-.19-.06-.28-.06-.19,0-.37.07-.51.22l-.66.66c-.06.06-.15.06-.2,0l-.84-.84c-.06-.06-.06-.15,0-.2l.66-.66c.21-.21.27-.52.16-.8-.12-.28-.37-.45-.67-.45h-.94c-.08,0-.14-.06-.14-.14v-1.19c0-.08.06-.14.14-.14h.94c.3,0,.56-.17.67-.45.12-.28.05-.58-.16-.8l-.66-.66c-.06-.06-.06-.15,0-.2l.84-.84c.06-.06.15-.06.2,0l.66.66c.21.21.52.27.8.16.28-.11.45-.37.45-.67v-.94c0-.08.06-.14.14-.14h1.19c.08,0,.14.06.14.14v.94c0,.3.17.56.45.67.28.12.58.05.8-.16l.66-.66c.06-.06.15-.06.2,0l.84.84c.06.06.06.15,0,.2l-.66.66c-.21.21-.27.52-.16.8.11.28.37.45.67.45h.94c.08,0,.14.06.14.14v1.19Z"/>
  <path d="M5,3.33c-.92,0-1.67.75-1.67,1.67s.75,1.67,1.67,1.67,1.67-.75,1.67-1.67-.75-1.67-1.67-1.67ZM5,6.3c-.71,0-1.3-.58-1.3-1.3s.58-1.3,1.3-1.3,1.3.58,1.3,1.3-.58,1.3-1.3,1.3Z"/>
</svg>